#!OML:ASF H:\MichaelJackson\Top Level 1\Subject 1\Session 1\male.ASF
:FULLY-SPECIFIED
:DEGREES
791
root 2.96574 11.2879 19.4814 36.3736 65.1273 11.4077
lowerback 33.6527 -3.43955 -0.839753
upperback 12.5241 -3.97269 -9.12531
thorax -4.1528 -1.17482 -7.8856
lowerneck -5.85143 -6.01235 -2.44986
upperneck -5.18249 -7.92238 -6.10192
head -0.803847 -3.8078 -1.56107
rclavicle 2.70347e-014 3.18055e-014
rhumerus -36.8873 46.3122 -48.6911
rradius 101.224
rwrist -42.2183
rhand -28.1402 -37.4387
rfingers 7.12502
rthumb -1.52129 -427.413
lclavicle 2.70347e-014 3.18055e-014
lhumerus -30.9323 28.8398 61.7551
lradius 37.963
lwrist 11.7906
lhand -36.2403 9.93949
lfingers 7.12502
lthumb -9.34172 39.7125
rfemur -109.319 -25.4256 36.4608
rtibia 108.563
rfoot -28.0289 10.5503
rtoes 11.8475
lfemur -16.8822 2.32565 23.3332
ltibia 27.9886
lfoot -8.1248 28.4353
ltoes 50.1053
792
root 2.97748 11.3231 19.5691 36.2643 64.9528 11.3112
lowerback 33.595 -3.39656 -0.747088
upperback 12.571 -3.88505 -9.10189
thorax -4.07419 -1.13046 -7.9429
lowerneck -5.88004 -5.97689 -2.30201
upperneck -5.00901 -7.87679 -6.3635
head -0.761238 -3.79184 -1.67176
rclavicle 4.45278e-014 5.96354e-015
rhumerus -36.807 46.363 -48.8735
rradius 101.215
rwrist -42.0474
rhand -28.1927 -37.4541
rfingers 7.12502
rthumb -1.572 -427.428
lclavicle 4.45278e-014 5.96354e-015
lhumerus -30.5796 28.7297 62.0948
lradius 38.0277
lwrist 11.9889
lhand -36.3067 9.91528
lfingers 7.12502
lthumb -9.40571 39.6854
rfemur -108.83 -25.1316 36.5457
rtibia 108.555
rfoot -28.1204 10.6915
rtoes 13.0068
lfemur -17.1967 2.75966 23.0702
ltibia 28.5909
lfoot -8.30584 28.1379
ltoes 50.1319
793
root 2.98824 11.3604 19.6569 36.1195 64.8119 11.1829
lowerback 33.5381 -3.35767 -0.646346
upperback 12.6285 -3.79775 -9.07337
thorax -3.98423 -1.08532 -7.99899
lowerneck -5.90488 -5.94178 -2.16874
upperneck -4.81545 -7.82885 -6.60222
head -0.710994 -3.77552 -1.77349
rclavicle 0 7.27552e-014
rhumerus -36.7217 46.4332 -49.045
rradius 101.181
rwrist -41.8741
rhand -28.2307 -37.4509
rfingers 7.12502
rthumb -1.60869 -427.425
lclavicle 0 7.27552e-014
lhumerus -30.206 28.545 62.4519
lradius 38.1144
lwrist 12.243
lhand -36.3771 9.81822
lfingers 7.12502
lthumb -9.47363 39.5853
rfemur -108.308 -24.8372 36.6294
rtibia 108.525
rfoot -28.1866 10.8153
rtoes 14.0614
lfemur -17.5573 3.21034 22.8369
ltibia 29.2185
lfoot -8.49456 27.8073
ltoes 50.1375
794
root 2.99793 11.3995 19.7452 35.9315 64.6833 11.0166
lowerback 33.4917 -3.30886 -0.565743
upperback 12.6891 -3.70314 -9.03789
thorax -3.89122 -1.03671 -8.03892
lowerneck -5.94522 -5.90568 -2.05083
upperneck -4.57739 -7.77409 -6.82404
head -0.642366 -3.75777 -1.86894
rclavicle 3.18055e-014 -7.55382e-015
rhumerus -36.6388 46.5222 -49.198
rradius 101.138
rwrist -41.7275
rhand -28.2567 -37.4546
rfingers 7.12502
rthumb -1.63384 -427.428
lclavicle 3.18055e-014 -7.55382e-015
lhumerus -29.8228 28.3073 62.8164
lradius 38.2115
lwrist 12.4951
lhand -36.4207 9.63711
lfingers 7.12502
lthumb -9.5157 39.4023
rfemur -107.754 -24.5298 36.7093
rtibia 108.472
rfoot -28.2325 10.9338
rtoes 15.0454
lfemur -17.9367 3.68045 22.625
ltibia 29.8582
lfoot -8.70186 27.4597
ltoes 50.1121
795
root 3.0065 11.4404 19.8336 35.7416 64.5551 10.8473
lowerback 33.4565 -3.24966 -0.522428
upperback 12.7458 -3.60687 -8.99731
thorax -3.80273 -0.98815 -8.05331
lowerneck -6.01167 -5.86649 -1.95378
upperneck -4.29046 -7.70831 -7.03204
head -0.551985 -3.73671 -1.95854
rclavicle 6.83819e-014 4.21423e-014
rhumerus -36.5615 46.6296 -49.3273
rradius 101.097
rwrist -41.6261
rhand -28.2742 -37.4648
rfingers 7.12502
rthumb -1.65077 -427.438
lclavicle 6.83819e-014 4.21423e-014
lhumerus -29.4411 28.0552 63.1807
lradius 38.3114
lwrist 12.6783
lhand -36.4122 9.40596
lfingers 7.12502
lthumb -9.50751 39.1715
rfemur -107.181 -24.2111 36.7733
rtibia 108.394
rfoot -28.265 11.0572
rtoes 15.984
lfemur -18.3383 4.17126 22.4118
ltibia 30.5043
lfoot -8.91914 27.1136
ltoes 50.0748
796
root 3.01369 11.4833 19.9221 35.5636 64.4196 10.6802
lowerback 33.4294 -3.18297 -0.507433
upperback 12.7955 -3.51133 -8.96681
thorax -3.72392 -0.940432 -8.06258
lowerneck -6.10854 -5.82717 -1.85927
upperneck -3.95714 -7.63666 -7.22215
head -0.440542 -3.71536 -2.04425
rclavicle 4.29375e-014 -9.54166e-015
rhumerus -36.5184 46.7338 -49.4739
rradius 101.071
rwrist -41.5751
rhand -28.2883 -37.4989
rfingers 7.12502
rthumb -1.66431 -427.472
lclavicle 4.29375e-014 -9.54166e-015
lhumerus -29.057 27.8077 63.5238
lradius 38.4094
lwrist 12.7495
lhand -36.3449 9.15633
lfingers 7.12502
lthumb -9.4426 38.9248
rfemur -106.591 -23.869 36.8102
rtibia 108.286
rfoot -28.2825 11.208
rtoes 16.9934
lfemur -18.7663 4.6804 22.1891
ltibia 31.1556
lfoot -9.13173 26.7849
ltoes 50.0271
797
root 3.01947 11.5283 20.0105 35.4131 64.2717 10.522
lowerback 33.4062 -3.10931 -0.525911
upperback 12.8355 -3.41908 -8.94699
thorax -3.65607 -0.895212 -8.06378
lowerneck -6.22775 -5.78697 -1.7688
upperneck -3.60448 -7.56027 -7.39681
head -0.317901 -3.693 -2.12591
rclavicle -7.31528e-014 -1.22054e-013
rhumerus -36.5059 46.837 -49.6232
rradius 101.078
rwrist -41.5921
rhand -28.3039 -37.565
rfingers 7.12502
rthumb -1.67945 -427.538
lclavicle -7.31528e-014 -1.22054e-013
lhumerus -28.6762 27.5961 63.841
lradius 38.5075
lwrist 12.6872
lhand -36.2199 8.92401
lfingers 7.12502
lthumb -9.32195 38.6979
rfemur -105.991 -23.4946 36.8129
rtibia 108.144
rfoot -28.2916 11.3895
rtoes 18.1188
lfemur -19.2271 5.20322 21.9493
ltibia 31.8135
lfoot -9.32537 26.4865
ltoes 49.9879
798
root 3.02397 11.5754 20.0985 35.3028 64.1053 10.3792
lowerback 33.3856 -3.02498 -0.571755
upperback 12.8656 -3.32403 -8.94303
thorax -3.59921 -0.849262 -8.06795
lowerneck -6.35537 -5.75184 -1.6647
upperneck -3.2617 -7.49132 -7.56026
head -0.19676 -3.67456 -2.20703
rclavicle 3.65764e-014 -2.54444e-014
rhumerus -36.572 46.9063 -49.8341
rradius 101.115
rwrist -41.6442
rhand -28.3275 -37.6524
rfingers 7.12502
rthumb -1.7022 -427.625
lclavicle 3.65764e-014 -2.54444e-014
lhumerus -28.2873 27.4128 64.1358
lradius 38.6089
lwrist 12.5222
lhand -36.0446 8.71848
lfingers 7.12502
lthumb -9.15279 38.4999
rfemur -105.38 -23.0788 36.7718
rtibia 107.966
rfoot -28.301 11.5925
rtoes 19.3387
lfemur -19.7216 5.72636 21.6845
ltibia 32.4735
lfoot -9.49804 26.2329
ltoes 49.9734
799
root 3.02738 11.6241 20.186 35.2118 63.9288 10.233
lowerback 33.3717 -2.93241 -0.634959
upperback 12.8861 -3.22598 -8.94729
thorax -3.55448 -0.802526 -8.07226
lowerneck -6.47127 -5.7234 -1.56031
upperneck -2.95654 -7.43404 -7.71138
head -0.0888623 -3.6604 -2.28372
rclavicle 7.95139e-015 3.49861e-014
rhumerus -36.7221 46.9472 -50.094
rradius 101.196
rwrist -41.7209
rhand -28.3608 -37.7588
rfingers 7.12502
rthumb -1.7344 -427.732
lclavicle 7.95139e-015 3.49861e-014
lhumerus -27.8986 27.2574 64.4137
lradius 38.7229
lwrist 12.3145
lhand -35.8466 8.56645
lfingers 7.12502
lthumb -8.96182 38.3561
rfemur -104.757 -22.624 36.7022
rtibia 107.751
rfoot -28.3139 11.8009
rtoes 20.6133
lfemur -20.2451 6.23328 21.4084
ltibia 33.1302
lfoot -9.64813 26.0218
ltoes 49.9884
800
root 3.02998 11.675 20.2732 35.1368 63.75 10.0829
lowerback 33.3614 -2.83826 -0.701109
upperback 12.9046 -3.12757 -8.95933
thorax -3.51381 -0.755485 -8.08332
lowerneck -6.56292 -5.70235 -1.45771
upperneck -2.71813 -7.39207 -7.84712
head -0.00557664 -3.65095 -2.35346
rclavicle 2.06736e-014 5.40694e-014
rhumerus -36.955 46.9556 -50.3942
rradius 101.329
rwrist -41.8011
rhand -28.3998 -37.8607
rfingers 7.12502
rthumb -1.77202 -427.833
lclavicle 2.06736e-014 5.40694e-014
lhumerus -27.5009 27.127 64.681
lradius 38.8501
lwrist 12.1279
lhand -35.6494 8.46297
lfingers 7.12502
lthumb -8.77147 38.2607
rfemur -104.121 -22.1343 36.6052
rtibia 107.502
rfoot -28.314 12.0199
rtoes 21.9881
lfemur -20.7956 6.7039 21.1256
ltibia 33.7786
lfoot -9.77706 25.8564
ltoes 50.0486
